<?xml version="1.0" encoding="UTF-8" standalone="no"?>
<svg
   width="57"
   height="57"
   viewBox="0 0 57 57"
   fill="none"
   version="1.1"
   id="svg13"
   sodipodi:docname="secure.svg"
   inkscape:version="1.1.2 (1:1.1+202202050950+0a00cf5339)"
   xmlns:inkscape="http://www.inkscape.org/namespaces/inkscape"
   xmlns:sodipodi="http://sodipodi.sourceforge.net/DTD/sodipodi-0.dtd"
   xmlns="http://www.w3.org/2000/svg"
   xmlns:svg="http://www.w3.org/2000/svg">
  <sodipodi:namedview
     id="namedview15"
     pagecolor="#ffffff"
     bordercolor="#666666"
     borderopacity="1.0"
     inkscape:pageshadow="2"
     inkscape:pageopacity="0.0"
     inkscape:pagecheckerboard="0"
     showgrid="false"
     inkscape:zoom="8.4480652"
     inkscape:cx="3.4919238"
     inkscape:cy="32.374277"
     inkscape:window-width="1600"
     inkscape:window-height="851"
     inkscape:window-x="0"
     inkscape:window-y="25"
     inkscape:window-maximized="1"
     inkscape:current-layer="svg13" />
  <rect
     style="fill:#011526;fill-rule:evenodd;fill-opacity:1"
     id="rect347"
     width="57.313961"
     height="56.965542"
     x="-0.077413194"
     y="0.12521575" />
  <path
     fill-rule="evenodd"
     clip-rule="evenodd"
     d="M31.2171 32.9625C31.3849 32.7923 31.4688 32.5914 31.4688 32.359V30.2147H40.3749V36.648C40.3749 37.2371 40.1674 37.7423 39.752 38.162C39.3368 38.5821 38.8375 38.7919 38.2545 38.7919H18.7456C18.1624 38.7919 17.6631 38.5821 17.2479 38.162C16.8325 37.7423 16.6249 37.2371 16.6249 36.648V30.2147H25.5312V32.359C25.5312 32.5914 25.6151 32.7923 25.783 32.9625C25.9509 33.1319 26.1497 33.2171 26.3795 33.2171H30.6206C30.8502 33.2171 31.0492 33.1319 31.2171 32.9625ZM30.1966 30.2147H26.8034V31.93H30.1966V30.2147ZM39.7521 22.2674C39.3369 21.8469 38.8376 21.637 38.2545 21.637H33.5891V19.4927C33.5891 19.1352 33.4656 18.8317 33.2181 18.581C32.9709 18.3316 32.6703 18.2061 32.317 18.2061H24.6831C24.3297 18.2061 24.0293 18.3316 23.7819 18.581C23.5345 18.8313 23.4108 19.1352 23.4108 19.4927V21.637H18.7456C18.1624 21.637 17.6631 21.8469 17.2479 22.2674C16.8325 22.6866 16.6249 23.1914 16.6249 23.7813V28.928H40.3749V23.7813C40.3749 23.1914 40.1674 22.6866 39.7521 22.2674ZM31.8929 21.637H25.1072V19.9213H31.8929V21.637Z"
     fill="white"
     id="path4" />
  <defs
     id="defs11">
    <linearGradient
       id="paint0_linear"
       x1="32.7855"
       y1="89.7855"
       x2="89.7855"
       y2="24.2145"
       gradientUnits="userSpaceOnUse">
      <stop
         stop-color="#FF416C"
         id="stop6" />
      <stop
         offset="1"
         stop-color="#FF4B2B"
         id="stop8" />
    </linearGradient>
  </defs>
</svg>
