<?xml version="1.0" encoding="UTF-8" standalone="no"?>
<svg
   width="57"
   height="57"
   viewBox="0 0 57 57"
   fill="none"
   version="1.1"
   id="svg13"
   sodipodi:docname="performance.svg"
   inkscape:version="1.1.2 (1:1.1+202202050950+0a00cf5339)"
   xmlns:inkscape="http://www.inkscape.org/namespaces/inkscape"
   xmlns:sodipodi="http://sodipodi.sourceforge.net/DTD/sodipodi-0.dtd"
   xmlns="http://www.w3.org/2000/svg"
   xmlns:svg="http://www.w3.org/2000/svg">
  <sodipodi:namedview
     id="namedview15"
     pagecolor="#ffffff"
     bordercolor="#666666"
     borderopacity="1.0"
     inkscape:pageshadow="2"
     inkscape:pageopacity="0.0"
     inkscape:pagecheckerboard="0"
     showgrid="false"
     inkscape:zoom="2.9868421"
     inkscape:cx="24.273128"
     inkscape:cy="31.973568"
     inkscape:window-width="1600"
     inkscape:window-height="851"
     inkscape:window-x="0"
     inkscape:window-y="25"
     inkscape:window-maximized="1"
     inkscape:current-layer="svg13" />
  <rect
     style="fill:#011526;fill-rule:evenodd;fill-opacity:1"
     id="rect347"
     width="57.313961"
     height="56.965542"
     x="-0.077413194"
     y="0.12521575" />
  <path
     fill-rule="evenodd"
     clip-rule="evenodd"
     d="m 39.197282,24.059333 c -0.0916,-0.2054 -0.2887,-0.3371 -0.5059,-0.3371 h -6.616 l 6.5295,-10.7715 c 0.1088,-0.1796 0.1155,-0.407 0.0173,-0.5925 -0.0982,-0.1871 -0.2859,-0.3027 -0.4892,-0.3027 h -8.933 c -0.2115,0 -0.4048,0.1248 -0.4997,0.3226 l -8.3747,17.5 c -0.0865,0.1807 -0.077,0.3952 0.0245,0.5672 0.1022,0.1721 0.2814,0.2764 0.4752,0.2764 h 5.7412 l -6.256,15.5241 c -0.1066,0.2656 -0.0117,0.5732 0.2233,0.7242 0.0904,0.057 0.1909,0.0855 0.2909,0.0855 0.1602,0 0.3182,-0.072 0.4277,-0.207 l 17.8661,-22.1666 c 0.1402,-0.1737 0.1703,-0.4167 0.0788,-0.6226 z"
     fill="#ffffff"
     id="path12" />
  <defs
     id="defs11">
    <linearGradient
       id="paint0_linear"
       x1="32.7855"
       y1="89.7855"
       x2="89.7855"
       y2="24.2145"
       gradientUnits="userSpaceOnUse">
      <stop
         stop-color="#FF416C"
         id="stop6" />
      <stop
         offset="1"
         stop-color="#FF4B2B"
         id="stop8" />
    </linearGradient>
  </defs>
</svg>
