<?xml version="1.0" encoding="UTF-8" standalone="no"?>
<svg
   width="57"
   height="57"
   viewBox="0 0 57 57"
   fill="none"
   version="1.1"
   id="svg13"
   sodipodi:docname="smart.svg"
   inkscape:version="1.1.2 (1:1.1+202202050950+0a00cf5339)"
   xmlns:inkscape="http://www.inkscape.org/namespaces/inkscape"
   xmlns:sodipodi="http://sodipodi.sourceforge.net/DTD/sodipodi-0.dtd"
   xmlns="http://www.w3.org/2000/svg"
   xmlns:svg="http://www.w3.org/2000/svg">
  <sodipodi:namedview
     id="namedview15"
     pagecolor="#ffffff"
     bordercolor="#666666"
     borderopacity="1.0"
     inkscape:pageshadow="2"
     inkscape:pageopacity="0.0"
     inkscape:pagecheckerboard="0"
     showgrid="false"
     inkscape:zoom="4.2240326"
     inkscape:cx="-14.322806"
     inkscape:cy="24.976133"
     inkscape:window-width="1600"
     inkscape:window-height="851"
     inkscape:window-x="0"
     inkscape:window-y="25"
     inkscape:window-maximized="1"
     inkscape:current-layer="svg13" />
  <rect
     style="fill:#011526;fill-rule:evenodd;fill-opacity:1"
     id="rect58"
     width="57.673401"
     height="57.075153"
     x="0.26955542"
     y="0.10626885" />
  <path
     fill-rule="evenodd"
     clip-rule="evenodd"
     d="M42.3891 25.2214C42.3936 25.3023 42.3877 25.3845 42.3675 25.467L40.5607 32.7235C40.4695 33.0887 40.1432 33.3462 39.7681 33.3483L28.9274 33.4033C28.926 33.4033 28.9247 33.4033 28.9232 33.4033H18.0825C17.7053 33.4033 17.3767 33.1449 17.2857 32.7776L15.4789 25.4934C15.458 25.4091 15.4521 25.3244 15.4573 25.2414C14.7583 25.0206 14.25 24.3638 14.25 23.59C14.25 22.6345 15.0236 21.8577 15.9746 21.8577C16.9256 21.8577 17.6993 22.6345 17.6993 23.59C17.6993 24.1276 17.4538 24.6085 17.0696 24.9269L19.3317 27.2151C19.9034 27.7935 20.6967 28.1255 21.5083 28.1255C22.468 28.1255 23.383 27.6675 23.9592 26.901L27.6769 21.9547C27.3646 21.6415 27.1711 21.2086 27.1711 20.7311C27.1711 19.776 27.9448 18.9988 28.8958 18.9988C29.8468 18.9988 30.6204 19.776 30.6204 20.7311C30.6204 21.1942 30.4373 21.6142 30.1413 21.9254C30.1423 21.9267 30.1436 21.9279 30.1445 21.9292L33.8351 26.889C34.4112 27.6628 35.3294 28.1255 36.2918 28.1255C37.1109 28.1255 37.8812 27.805 38.4603 27.2236L40.7366 24.9375C40.3443 24.6196 40.0923 24.1344 40.0923 23.59C40.0923 22.6345 40.866 21.8577 41.817 21.8577C42.768 21.8577 43.5417 22.6345 43.5417 23.59C43.5417 24.3429 43.0592 24.9839 42.3891 25.2214ZM40.3844 35.9868C40.3844 35.5318 40.0166 35.1624 39.5631 35.1624H18.3198C17.8662 35.1624 17.4985 35.5318 17.4985 35.9868V37.966C17.4985 38.4218 17.8662 38.7908 18.3198 38.7908H39.5631C40.0166 38.7908 40.3844 38.4218 40.3844 37.966V35.9868Z"
     fill="white"
     id="path4" />
  <defs
     id="defs11">
    <linearGradient
       id="paint0_linear"
       x1="32.7855"
       y1="89.7855"
       x2="89.7855"
       y2="24.2145"
       gradientUnits="userSpaceOnUse">
      <stop
         stop-color="#FF5858"
         id="stop6" />
      <stop
         offset="1"
         stop-color="#F857A6"
         id="stop8" />
    </linearGradient>
  </defs>
</svg>
