<?xml version="1.0" encoding="UTF-8" standalone="no"?>
<svg
   width="57"
   height="57"
   viewBox="0 0 57 57"
   fill="none"
   version="1.1"
   id="svg13"
   xmlns="http://www.w3.org/2000/svg"
   xmlns:svg="http://www.w3.org/2000/svg">
  <rect
     style="fill:#011526;fill-opacity:1;fill-rule:evenodd"
     id="rect58"
     width="57.673401"
     height="57.075153"
     x="0.26955542"
     y="0.10626885" />
  <path
     fill-rule="evenodd"
     clip-rule="evenodd"
     d="m 42.3891,25.2214 c 0.0045,0.0809 -0.0014,0.1631 -0.0216,0.2456 l -1.8068,7.2565 c -0.0912,0.3652 -0.4175,0.6227 -0.7926,0.6248 l -10.8407,0.055 c -0.0014,0 -0.0027,0 -0.0042,0 H 18.0825 c -0.3772,0 -0.7058,-0.2584 -0.7968,-0.6257 L 15.4789,25.4934 C 15.458,25.4091 15.4521,25.3244 15.4573,25.2414 14.7583,25.0206 14.25,24.3638 14.25,23.59 c 0,-0.9555 0.7736,-1.7323 1.7246,-1.7323 0.951,0 1.7247,0.7768 1.7247,1.7323 0,0.5376 -0.2455,1.0185 -0.6297,1.3369 l 2.2621,2.2882 c 0.5717,0.5784 1.365,0.9104 2.1766,0.9104 0.9597,0 1.8747,-0.458 2.4509,-1.2245 l 3.7177,-4.9463 c -0.3123,-0.3132 -0.5058,-0.7461 -0.5058,-1.2236 0,-0.9551 0.7737,-1.7323 1.7247,-1.7323 0.951,0 1.7246,0.7772 1.7246,1.7323 0,0.4631 -0.1831,0.8831 -0.4791,1.1943 10e-4,0.0013 0.0023,0.0025 0.0032,0.0038 l 3.6906,4.9598 c 0.5761,0.7738 1.4943,1.2365 2.4567,1.2365 0.8191,0 1.5894,-0.3205 2.1685,-0.9019 l 2.2763,-2.2861 c -0.3923,-0.3179 -0.6443,-0.8031 -0.6443,-1.3475 0,-0.9555 0.7737,-1.7323 1.7247,-1.7323 0.951,0 1.7247,0.7768 1.7247,1.7323 0,0.7529 -0.4825,1.3939 -1.1526,1.6314 z m -2.0047,10.7654 c 0,-0.455 -0.3678,-0.8244 -0.8213,-0.8244 H 18.3198 c -0.4536,0 -0.8213,0.3694 -0.8213,0.8244 v 1.9792 c 0,0.4558 0.3677,0.8248 0.8213,0.8248 h 21.2433 c 0.4535,0 0.8213,-0.369 0.8213,-0.8248 z"
     fill="#ffffff"
     id="path4" />
  <defs
     id="defs11">
    <linearGradient
       id="paint0_linear"
       x1="32.7855"
       y1="89.7855"
       x2="89.7855"
       y2="24.2145"
       gradientUnits="userSpaceOnUse">
      <stop
         stop-color="#FF5858"
         id="stop6" />
      <stop
         offset="1"
         stop-color="#F857A6"
         id="stop8" />
    </linearGradient>
  </defs>
</svg>
